PathFileType	4	(X/Y/Z)	/Users/itak/Documents/Research/Walk-IL/dataset/trc/00142_00007.trc
DataRate	CameraRate	NumFrames	NumMarkers	Units	OrigDataRate	OrigDataStartFrame	OrigNumFrames
100.000000	100.000000	4	53	mm	100.000000	337	540
Frame#	Time	RPSI			LPSI			L3			STRN			T10			C7			CLAV			RBAK			LBAK			LSHO			LUPA			LAEL			LAOL			LWTS			LWPS			LFRA			LIFD			LHPS			LHTS			RSHO			RUPA			RAEL			RAOL			RWTS			RWPS			RFRA			RIFD			RHTS			RHPS			RBHD			LFHD			RFHD			LBHD			LHIP			RHIP			RASI			LASI			LKNE			LTHI			LANK			LTIP			LTOE			LMT1			LMT5			LHEE			RKNE			RTHI			RANK			RTIP			RTOE			RMT1			RMT5			RHEE			
		X1	Y1	Z1	X2	Y2	Z2	X3	Y3	Z3	X4	Y4	Z4	X5	Y5	Z5	X6	Y6	Z6	X7	Y7	Z7	X8	Y8	Z8	X9	Y9	Z9	X10	Y10	Z10	X11	Y11	Z11	X12	Y12	Z12	X13	Y13	Z13	X14	Y14	Z14	X15	Y15	Z15	X16	Y16	Z16	X17	Y17	Z17	X18	Y18	Z18	X19	Y19	Z19	X20	Y20	Z20	X21	Y21	Z21	X22	Y22	Z22	X23	Y23	Z23	X24	Y24	Z24	X25	Y25	Z25	X26	Y26	Z26	X27	Y27	Z27	X28	Y28	Z28	X29	Y29	Z29	X30	Y30	Z30	X31	Y31	Z31	X32	Y32	Z32	X33	Y33	Z33	X34	Y34	Z34	X35	Y35	Z35	X36	Y36	Z36	X37	Y37	Z37	X38	Y38	Z38	X39	Y39	Z39	X40	Y40	Z40	X41	Y41	Z41	X42	Y42	Z42	X43	Y43	Z43	X44	Y44	Z44	X45	Y45	Z45	X46	Y46	Z46	X47	Y47	Z47	X48	Y48	Z48	X49	Y49	Z49	X50	Y50	Z50	X51	Y51	Z51	X52	Y52	Z52	X53	Y53	Z53	

338	3.37	490.3670349121094	1101.645751953125	861.8156127929688	385.3961181640625	1101.964477539062	779.9645385742188	434.8703308105469	1137.5927734375	826.068359375	579.6475219726562	1332.03125	654.707275390625	431.9083251953125	1286.733642578125	853.6241455078125	433.3761901855469	1580.078125	814.0615844726562	549.5679931640625	1467.141235351562	674.4622192382812	472.6488037109375	1400.408325195312	918.1290283203125	346.691650390625	1555.92333984375	760.4315795898438	339.6607360839844	1535.544799804688	650.2625122070312	268.4698791503906	1401.370361328125	648.9788818359375	250.8572998046875	1184.736694335938	673.9173583984375	276.7201538085938	1188.805908203125	758.5738525390625	318.8768005371094	912.2015991210938	657.739990234375	264.3076171875	905.0732421875	727.2872924804688	249.1764526367188	1067.321655273438	682.372314453125	339.9991149902344	721.7342529296875	703.7898559570312	274.3530883789062	825.1087646484375	721.6600341796875	314.5393981933594	821.135009765625	665.3759765625	610.8767700195312	1568.2900390625	876.5081176757812	654.9918212890625	1496.791259765625	928.7212524414062	703.2646484375	1205.025146484375	943.0664672851562	620.9721069335938	1193.583862304688	890.5357666015625	818.3031005859375	986.0386352539062	807.708251953125	799.7457885742188	960.60546875	884.0107421875	740.935546875	1137.146850585938	929.9165649414062	861.2858276367188	799.8770751953125	764.2037353515625	860.7808227539062	887.4918823242188	781.6893920898438	842.9270629882812	869.7201538085938	850.5964965820312	529.1970825195312	1762.217651367188	802.6897583007812	457.10009765625	1797.518310546875	597.0350952148438	576.7646484375	1822.5810546875	640.7664184570312	402.0527648925781	1741.919189453125	763.4155883789062	372.8500671386719	1014.246826171875	626.8944702148438	659.4364013671875	1003.818603515625	854.1907958984375	682.992919921875	1072.670166015625	757.208251953125	478.9971008300781	1076.376342773438	583.3984985351562	523.665283203125	532.6768798828125	543.55419921875	449.1245727539062	661.7398071289062	572.6437377929688	599.6146240234375	31.20767593383789	541.8402099609375	515.5817260742188	269.1936950683594	562.896240234375	748.5783081054688	64.314208984375	366.4861145019531	745.0233154296875	58.24545288085938	449.2994384765625	634.2384033203125	45.33457946777344	423.4255676269531	626.7003173828125	29.44802284240723	630.1845703125	588.7041015625	513.9878540039062	899.4447021484375	649.7010498046875	790.4365234375	855.3775024414062	355.75634765625	88.71908569335938	1132.368530273438	539.2162475585938	402.3966979980469	973.531005859375	482.062255859375	38.92421340942383	941.4239501953125	412.3767700195312	44.53505706787109	952.851806640625	461.1304626464844	41.75349426269531	1064.99462890625	284.6326293945312	117.4868240356445	1129.97314453125	
339	3.38	496.4281005859375	1101.875	852.999267578125	391.3913879394531	1102.900146484375	771.2413940429688	440.6270751953125	1138.404907226562	817.5167236328125	584.4716186523438	1333.313842773438	645.8441162109375	437.947021484375	1287.215698242188	845.6419067382812	438.5323486328125	1580.633422851562	806.864013671875	554.1422729492188	1468.255981445312	666.2907104492188	478.7999877929688	1400.748168945312	910.0899658203125	351.5322265625	1556.52294921875	753.7232666015625	343.9359436035156	1536.432739257812	643.540771484375	272.8917541503906	1402.173583984375	642.2263793945312	255.6831512451172	1185.516845703125	666.4517822265625	282.2506713867188	1189.149291992188	750.9444580078125	323.9496459960938	913.2492065429688	647.7674560546875	270.369873046875	905.4850463867188	718.0075073242188	254.2403564453125	1068.012573242188	674.2027587890625	346.4746398925781	722.5556640625	692.5137939453125	280.8376770019531	825.5631713867188	711.94580078125	320.0718078613281	822.0524291992188	655.0036010742188	616.4336547851562	1569.026489257812	868.2985229492188	660.641357421875	1497.364624023438	920.2216796875	706.5750122070312	1205.230712890625	934.2723999023438	624.3433227539062	1194.53466796875	881.4636840820312	820.0512084960938	985.2283935546875	799.1786499023438	801.294189453125	960.033203125	875.5138549804688	743.714599609375	1137.054077148438	921.2080078125	861.4205932617188	798.6781616210938	755.7595825195312	861.6602783203125	886.2933349609375	773.1864624023438	843.6983032226562	868.7273559570312	842.1336669921875	533.6447143554688	1763.11474609375	795.4287719726562	460.7833557128906	1798.651733398438	590.1077880859375	580.5726928710938	1823.822265625	633.4536743164062	406.38037109375	1742.7041015625	756.5426635742188	377.4798889160156	1016.122375488281	618.2179565429688	665.19189453125	1003.613830566406	843.707763671875	688.18798828125	1073.243530273438	746.9584350585938	483.3983154296875	1078.096313476562	574.3119506835938	528.0983276367188	533.3355102539062	537.1742553710938	453.7680053710938	663.1885375976562	564.654052734375	600.2716674804688	31.42373657226562	539.9943237304688	517.7767944335938	269.8820495605469	556.4322509765625	753.8451538085938	60.57825469970703	367.2155456542969	748.336181640625	55.81723403930664	450.1885070800781	637.8060302734375	44.5749397277832	422.0946350097656	625.849365234375	30.28826522827148	628.9816284179688	598.4998779296875	513.0952758789062	887.70703125	656.8321533203125	790.2642211914062	844.0377197265625	360.6242370605469	95.34717559814453	1131.334350585938	548.0342407226562	403.3087463378906	964.1266479492188	482.053955078125	38.86737823486328	941.6076049804688	412.9764099121094	45.44765853881836	952.5421752929688	462.2959899902344	41.9730224609375	1063.966430664062	290.7241516113281	126.7709045410156	1128.327758789062	
340	3.39	502.4014892578125	1102.248291015625	844.2117919921875	397.2716064453125	1103.9560546875	762.542236328125	446.2611694335938	1139.313598632812	808.927001953125	589.1972045898438	1334.718627929688	636.9678955078125	443.9219970703125	1287.802612304688	837.672119140625	443.6886901855469	1581.298950195312	799.7271118164062	558.6522216796875	1469.4990234375	658.1453857421875	485.00244140625	1401.173706054688	902.0202026367188	356.392333984375	1557.241577148438	747.078125	348.2008666992188	1537.531982421875	636.8890380859375	277.2556457519531	1403.205810546875	635.4793090820312	260.4425048828125	1186.511962890625	658.8316040039062	287.7411804199219	1189.65771484375	743.1395263671875	328.9076843261719	914.5650634765625	637.3560791015625	276.3479614257812	906.0899658203125	708.2686157226562	259.2314147949219	1068.922485351562	665.767822265625	352.678466796875	723.5853271484375	680.3868408203125	287.1644592285156	826.2208862304688	701.6101684570312	325.4212036132812	823.2577514648438	644.0075073242188	622.000732421875	1569.878051757812	860.0725708007812	666.3260498046875	1498.072509765625	911.6907958984375	709.773681640625	1205.580932617188	925.4674072265625	627.6302490234375	1195.660888671875	872.3192749023438	821.687744140625	984.4728393554688	790.7530517578125	802.6874389648438	959.569580078125	867.1190185546875	746.3602294921875	1137.099487304688	912.5256958007812	861.23876953125	797.4601440429688	747.5127563476562	862.319580078125	885.080322265625	764.8357543945312	844.2265625	867.7857055664062	833.8258666992188	538.0969848632812	1764.152099609375	788.17333984375	464.4303894042969	1799.821655273438	583.1881103515625	584.3523559570312	1825.139526367188	626.1177368164062	410.7267761230469	1743.587280273438	749.7037353515625	381.9463806152344	1018.059204101562	609.6318969726562	670.8460693359375	1003.561706542969	833.16357421875	693.2014770507812	1073.956665039062	736.6331176757812	487.6067504882812	1079.937866210938	565.2731323242188	532.5775146484375	534.1558227539062	530.740478515625	458.2954406738281	664.7191772460938	556.557861328125	600.8307495117188	31.68660163879395	538.4002685546875	519.98388671875	270.6748352050781	550.1039428710938	758.4740600585938	57.17711639404297	368.0534362792969	751.18359375	53.62348175048828	451.1494140625	640.9088134765625	44.12924575805664	420.9794006347656	624.97509765625	31.01193809509277	627.9130859375	608.8198852539062	512.2508544921875	875.3713989257812	664.0546875	790.2275390625	832.431640625	366.3881225585938	102.5212478637695	1129.9072265625	557.5824584960938	404.2157897949219	953.9668579101562	482.0121459960938	38.78123092651367	941.7872314453125	413.5996704101562	46.41892623901367	952.14208984375	463.6817626953125	42.31367492675781	1062.765991210938	297.9420776367188	136.6562042236328	1126.2373046875	
341	3.4	508.2400817871094	1102.703002929688	835.4725952148438	403.0084838867188	1105.067626953125	753.8868408203125	451.7513732910156	1140.260375976562	800.3190307617188	593.7973022460938	1336.179321289062	628.0952758789062	449.7976379394531	1288.447875976562	829.7166137695312	448.8416442871094	1582.028076171875	792.6561889648438	563.083984375	1470.8046875	650.031005859375	491.224365234375	1401.640380859375	893.9466552734375	361.2573852539062	1558.03759765625	740.506591796875	352.4518127441406	1538.798706054688	630.3087768554688	281.5585021972656	1404.419189453125	628.7459716796875	265.1181030273438	1187.667724609375	651.07275390625	293.1654052734375	1190.277709960938	735.1737060546875	333.7593994140625	916.1085205078125	626.5269775390625	282.2388305664062	906.8427124023438	698.0863037109375	264.1414489746094	1070.003295898438	657.0868530273438	358.5942077636719	724.796630859375	667.4330444335938	293.3014221191406	827.0467529296875	690.651611328125	330.5896301269531	824.720703125	632.4075927734375	627.5804443359375	1570.7734375	851.8333740234375	672.0513305664062	1498.83935546875	903.1260375976562	712.8877563476562	1206.003051757812	916.6640014648438	630.85107421875	1196.871337890625	863.12890625	823.2633666992188	983.7279663085938	782.4268188476562	803.9606323242188	959.1530151367188	858.8154907226562	748.9089965820312	1137.213745117188	903.8780517578125	860.8067626953125	796.1956176757812	739.4276733398438	862.817138671875	883.820556640625	756.6232299804688	844.5584106445312	866.845703125	825.6491088867188	542.5734252929688	1765.265502929688	780.9478759765625	468.0540466308594	1800.995849609375	576.3056030273438	588.119873046875	1826.483764648438	618.7863159179688	415.1097412109375	1744.5205078125	742.9285278320312	386.2623596191406	1019.973937988281	601.136474609375	676.3767700195312	1003.634704589844	822.6249389648438	698.0338134765625	1074.768310546875	726.2980346679688	491.6415405273438	1081.813598632812	556.2996215820312	536.9804077148438	535.0401611328125	524.3761596679688	462.7142028808594	666.2312622070312	548.5101928710938	601.31005859375	31.96296691894531	537.0960693359375	522.19677734375	271.4872131347656	544.1561279296875	762.3424072265625	54.06050109863281	368.8729248046875	753.5042724609375	51.61104583740234	452.0618896484375	643.4620971679688	43.88764190673828	420.0689086914062	624.1724243164062	31.6265983581543	627.0105590820312	619.5809326171875	511.44873046875	862.447998046875	671.3290405273438	790.3018188476562	820.6143188476562	373.1061096191406	110.1657333374023	1128.006469726562	567.82958984375	405.058349609375	943.0332641601562	482.0106811523438	38.67566680908203	941.9215087890625	414.3183288574219	47.49778747558594	951.6155395507812	465.3807678222656	42.84371185302734	1061.376586914062	306.3406066894531	147.0317993164062	1123.660522460938	
